<svg width="375" height="76" viewBox="0 0 375 76" fill="none" xmlns="http://www.w3.org/2000/svg">
<path fill-rule="evenodd" clip-rule="evenodd" d="M51.5594 76L51.5594 -8.83517e-07L71.9844 0L71.9844 76L51.5594 76Z" fill="url(#paint0_linear_31_1279)"/>
<path fill-rule="evenodd" clip-rule="evenodd" d="M20.447 -6.13979e-07L20.447 76L0.0219727 76L0.0219736 -8.34465e-07L20.447 -6.13979e-07Z" fill="url(#paint1_linear_31_1279)"/>
<path fill-rule="evenodd" clip-rule="evenodd" d="M71.9847 0C71.9847 15.3157 69.3411 28.7036 59.3441 38.3172C52.2685 45.1214 44.0933 46.8333 38.6258 47.9783C38.4447 48.0162 38.2665 48.0535 38.0915 48.0904C32.3351 49.3021 29.4873 50.0864 26.9593 52.438C24.2313 55.3609 22.8297 57.778 21.9439 60.6961C20.9421 63.9966 20.425 68.513 20.425 76H0C0 67.9163 0.510655 60.9863 2.39943 54.7637C4.38507 48.2219 7.69494 43.0803 12.2999 38.2117L12.4661 38.036L12.6404 37.8683C19.7078 31.0717 27.8787 29.361 33.3414 28.2172C33.5254 28.1787 33.7064 28.1408 33.8841 28.1034C39.7577 26.8669 42.6098 26.0729 45.1865 23.595C49.0681 19.8623 51.5596 13.6013 51.5596 0H71.9847Z" fill="white"/>
<g style="mix-blend-mode:multiply">
<path d="M20.4473 32.3359C25.1899 29.926 29.8263 28.9528 33.3418 28.2168C33.5255 28.1783 33.7063 28.1409 33.8838 28.1035C39.7574 26.867 42.6098 26.0726 45.1865 23.5947C49.068 19.862 51.5596 13.6012 51.5596 0H71.9844V76H51.5596V43.8398C46.8027 46.2634 42.1519 47.2402 38.626 47.9785C38.4449 48.0164 38.2668 48.054 38.0918 48.0908C32.3354 49.3026 29.487 50.086 26.959 52.4375C24.2311 55.3605 22.8301 57.7782 21.9443 60.6963C21.061 63.6064 20.5547 67.4616 20.4473 73.4648V76H0C9.28597e-09 75.0655 0.00747329 74.1465 0.0224609 73.2422V0H20.4473V32.3359Z" fill="url(#paint2_linear_31_1279)"/>
</g>
<path d="M111.528 13.04H123.17V32.4551H143.919V13.04H155.561V63.1301H143.919V41.8875H123.17V63.1301H111.528V13.04Z" fill="url(#paint3_linear_31_1279)"/>
<path d="M171.754 61.9022C168.758 60.3301 166.438 58.0997 164.783 55.2209C163.128 52.3322 162.296 48.9719 162.296 45.1301C162.296 41.2884 163.128 37.9183 164.783 35.0394C166.438 32.1507 168.768 29.9302 171.754 28.3581C174.741 26.786 178.227 26 182.202 26C186.177 26 189.595 26.786 192.61 28.3581C195.626 29.9302 197.966 32.1606 199.621 35.0394C201.276 37.9281 202.108 41.2884 202.108 45.1301C202.108 48.9719 201.276 52.342 199.621 55.2209C197.966 58.1095 195.626 60.3301 192.61 61.9022C189.595 63.4742 186.128 64.2603 182.202 64.2603C178.276 64.2603 174.751 63.4742 171.754 61.9022ZM189.007 52.509C190.779 50.5832 191.67 48.1269 191.67 45.1203C191.67 42.1137 190.779 39.6672 189.007 37.7709C187.235 35.8746 184.963 34.9215 182.212 34.9215C179.46 34.9215 177.12 35.8746 175.338 37.7709C173.566 39.6672 172.675 42.1235 172.675 45.1203C172.675 48.1171 173.566 50.5832 175.338 52.509C177.11 54.4348 179.402 55.3977 182.212 55.3977C185.022 55.3977 187.235 54.4348 189.007 52.509Z" fill="url(#paint4_linear_31_1279)"/>
<path d="M208.424 27.1103H218.656V32.0328H219.429C220.223 30.3428 221.427 28.9869 223.043 27.9553C224.658 26.9236 226.391 26.4028 228.261 26.4028C229.759 26.4028 231.111 26.7074 232.325 27.3166V36.6704C231.385 36.2479 230.376 35.9237 229.28 35.6879C228.183 35.4521 227.233 35.3342 226.44 35.3342C224.149 35.3342 222.308 36.1988 220.898 37.9379C219.498 39.677 218.793 41.927 218.793 44.688V63.1205H208.414V27.1103H208.424Z" fill="url(#paint5_linear_31_1279)"/>
<path d="M239.532 20.3994C238.367 19.2499 237.78 17.7859 237.78 15.9977C237.78 14.2094 238.367 12.7553 239.532 11.6057C240.698 10.4561 242.196 9.88623 244.017 9.88623C245.838 9.88623 247.336 10.4561 248.501 11.6057C249.667 12.7553 250.254 14.2192 250.254 15.9977C250.254 17.7761 249.667 19.2499 248.501 20.3994C247.336 21.549 245.838 22.1189 244.017 22.1189C242.196 22.1189 240.698 21.549 239.532 20.3994ZM238.837 27.1102H249.216V63.1303H238.837V27.1102Z" fill="url(#paint6_linear_31_1279)"/>
<path d="M254.688 58.0703L272.636 36.4739V35.6977H255.393V27.1201H287.363V32.2588L270.12 53.8551V54.5626H288.068V63.1402H254.698V58.0703H254.688Z" fill="url(#paint7_linear_31_1279)"/>
<path d="M301.727 61.9022C298.73 60.3301 296.41 58.0997 294.755 55.2209C293.1 52.3322 292.268 48.9719 292.268 45.1301C292.268 41.2884 293.1 37.9183 294.755 35.0394C296.41 32.1507 298.74 29.9302 301.727 28.3581C304.713 26.786 308.199 26 312.174 26C316.149 26 319.567 26.786 322.582 28.3581C325.598 29.9302 327.938 32.1606 329.593 35.0394C331.248 37.9281 332.08 41.2884 332.08 45.1301C332.08 48.9719 331.248 52.342 329.593 55.2209C327.938 58.1095 325.598 60.3301 322.582 61.9022C319.567 63.4742 316.101 64.2603 312.174 64.2603C308.248 64.2603 304.723 63.4742 301.727 61.9022ZM318.979 52.509C320.751 50.5832 321.643 48.1269 321.643 45.1203C321.643 42.1137 320.751 39.6672 318.979 37.7709C317.207 35.8746 314.935 34.9215 312.184 34.9215C309.433 34.9215 307.092 35.8746 305.31 37.7709C303.538 39.6672 302.647 42.1235 302.647 45.1203C302.647 48.1171 303.538 50.5832 305.31 52.509C307.083 54.4348 309.374 55.3977 312.184 55.3977C314.994 55.3977 317.207 54.4348 318.979 52.509Z" fill="url(#paint8_linear_31_1279)"/>
<path d="M338.396 27.1099H348.775V32.1798H349.48C352.143 28.1023 355.629 26.0586 359.927 26.0586C362.591 26.0586 364.95 26.7071 367.007 27.9942C369.063 29.2813 370.649 31.0696 371.775 33.3392C372.901 35.6187 373.459 38.1832 373.459 41.0424V63.13H363.08V42.5162C363.08 40.2662 362.473 38.4485 361.259 37.0631C360.045 35.6777 358.41 34.9899 356.354 34.9899C354.297 34.9899 352.466 35.7367 350.988 37.2399C349.519 38.7432 348.775 40.6199 348.775 42.8699V63.13H338.396V27.1099Z" fill="url(#paint9_linear_31_1279)"/>
<defs>
<linearGradient id="paint0_linear_31_1279" x1="51.4657" y1="-8.8757e-07" x2="51.4657" y2="76" gradientUnits="userSpaceOnUse">
<stop offset="0.22" stop-color="#D8D8D8"/>
<stop offset="0.78" stop-color="white"/>
</linearGradient>
<linearGradient id="paint1_linear_31_1279" x1="20.5407" y1="76" x2="20.5407" y2="2.21497e-07" gradientUnits="userSpaceOnUse">
<stop offset="0.22" stop-color="#D8D8D8"/>
<stop offset="0.78" stop-color="white"/>
</linearGradient>
<linearGradient id="paint2_linear_31_1279" x1="0" y1="0" x2="378.999" y2="66.9995" gradientUnits="userSpaceOnUse">
<stop stop-color="#FACCCE"/>
<stop offset="0.33" stop-color="#FB989A"/>
<stop offset="0.66" stop-color="#9398C9"/>
<stop offset="1" stop-color="#CACEFA"/>
</linearGradient>
<linearGradient id="paint3_linear_31_1279" x1="0.308814" y1="-0.154605" x2="369.805" y2="66.7316" gradientUnits="userSpaceOnUse">
<stop stop-color="#FACCCE"/>
<stop offset="0.33" stop-color="#F6A7A8"/>
<stop offset="0.66" stop-color="#A3A7D3"/>
<stop offset="1" stop-color="#CACEFA" stop-opacity="0.964706"/>
</linearGradient>
<linearGradient id="paint4_linear_31_1279" x1="3.24354" y1="0.926886" x2="378.146" y2="60.8619" gradientUnits="userSpaceOnUse">
<stop stop-color="#FACCCE"/>
<stop offset="0.33" stop-color="#F6A7A8"/>
<stop offset="0.66" stop-color="#A3A7D3"/>
<stop offset="1" stop-color="#CACEFA" stop-opacity="0.964706"/>
</linearGradient>
<linearGradient id="paint5_linear_31_1279" x1="2.16258" y1="-0.772248" x2="374.593" y2="59.1627" gradientUnits="userSpaceOnUse">
<stop stop-color="#FACCCE"/>
<stop offset="0.33" stop-color="#F6A7A8"/>
<stop offset="0.66" stop-color="#A3A7D3"/>
<stop offset="1" stop-color="#CACEFA" stop-opacity="0.964706"/>
</linearGradient>
<linearGradient id="paint6_linear_31_1279" x1="1.5447" y1="2.16265" x2="366.407" y2="63.0245" gradientUnits="userSpaceOnUse">
<stop stop-color="#FACCCE"/>
<stop offset="0.33" stop-color="#F6A7A8"/>
<stop offset="0.66" stop-color="#A3A7D3"/>
<stop offset="1" stop-color="#CACEFA" stop-opacity="0.964706"/>
</linearGradient>
<linearGradient id="paint7_linear_31_1279" x1="-0.309067" y1="0.30905" x2="370.423" y2="63.0245" gradientUnits="userSpaceOnUse">
<stop stop-color="#FACCCE"/>
<stop offset="0.33" stop-color="#F6A7A8"/>
<stop offset="0.66" stop-color="#A3A7D3"/>
<stop offset="1" stop-color="#CACEFA" stop-opacity="0.964706"/>
</linearGradient>
<linearGradient id="paint8_linear_31_1279" x1="-0.309255" y1="-0.154416" x2="379.227" y2="64.2603" gradientUnits="userSpaceOnUse">
<stop stop-color="#FACCCE"/>
<stop offset="0.33" stop-color="#F6A7A8"/>
<stop offset="0.66" stop-color="#A3A7D3"/>
<stop offset="1" stop-color="#CACEFA" stop-opacity="0.964706"/>
</linearGradient>
<linearGradient id="paint9_linear_31_1279" x1="2.62617" y1="-0.772538" x2="373.512" y2="86.1949" gradientUnits="userSpaceOnUse">
<stop stop-color="#FACCCE"/>
<stop offset="0.33" stop-color="#F6A7A8"/>
<stop offset="0.66" stop-color="#A3A7D3"/>
<stop offset="1" stop-color="#CACEFA" stop-opacity="0.964706"/>
</linearGradient>
</defs>
</svg>
