<svg xmlns="http://www.w3.org/2000/svg" viewBox="0 0 1798 925">
<defs>
  <linearGradient id="gold" x1="0%" y1="0%" x2="100%" y2="100%">
    <stop offset="0%" stop-color="#F7E98E"/>
    <stop offset="15%" stop-color="#FFFAD4"/>
    <stop offset="35%" stop-color="#D4AF37"/>
    <stop offset="50%" stop-color="#FFD700"/>
    <stop offset="65%" stop-color="#C5A028"/>
    <stop offset="80%" stop-color="#F0D060"/>
    <stop offset="100%" stop-color="#AA8C2C"/>
  </linearGradient>
</defs>
<g fill="url(#gold)">
<path d="M161 1c-85 11 -151 78 -160 164 -1 13 -1 582 0 595 3 30 14 59 31 84 31 46 80 75 137 80 15 1 1446 1 1462 0 86 -8 155 -73 166 -158 1 -10 2 -44 1 -309 0 -324 0 -298 -6 -321 -12 -46 -46 -90 -89 -114 -15 -8 -36 -16 -57 -20 -8 -2 -47 -2 -744 -2 -404 0 -738 0 -742 1zm1488 11c52 12 91 40 117 84 11 19 20 45 22 67 1 7 1 92 1 305l0 296 -2 11c-12 54 -45 99 -93 122 -20 10 -41 16 -63 18 -15 1 -1447 1 -1462 0 -23 -2 -41 -7 -61 -17 -36 -17 -62 -43 -80 -78 -10 -21 -16 -38 -18 -60 -1 -6 -1 -111 -1 -298 0 -317 0 -299 6 -323 16 -62 65 -109 128 -125 18 -4 -17 -4 760 -4l736 0 10 2z"/>
<path d="M107 142c-6 24 -11 45 -11 46 0 1 2 1 3 1 2 0 3 -1 7 -10 9 -21 19 -35 31 -40 20 -10 43 -12 131 -13 56 -1 57 -1 56 1 0 1 -50 76 -112 167 -61 91 -112 167 -114 170 -3 5 -3 5 -1 7 2 2 7 2 140 2 129 0 138 0 140 -1 1 -1 3 -11 6 -37 2 -20 4 -37 4 -38 0 -2 -1 -2 -3 -2 -2 0 -3 1 -5 9 -3 13 -6 19 -11 27 -8 12 -18 20 -32 25 -16 6 -19 6 -108 6 -78 0 -82 0 -81 -2 0 -1 51 -77 113 -170 62 -92 112 -169 112 -170 0 -5 4 -5 -120 -5 -106 0 -117 -1 -120 -2 -4 -2 -6 -4 -6 -10 0 -4 0 -5 -3 -5l-3 0 -11 44z"/>
<path d="M1055 205c-16 1 -48 2 -78 1l-20 0 0 3 0 3 11 1c24 1 30 6 32 27 0 4 1 49 1 100 0 52 0 97 -1 100 -3 20 -8 24 -32 26l-11 1 0 3 0 3 40 0c31 0 45 0 62 1 51 4 80 0 110 -15 32 -17 55 -43 66 -77 9 -26 9 -60 1 -86 -15 -48 -56 -80 -115 -89 -13 -2 -46 -3 -65 -1zm49 8c32 5 55 18 72 43 12 18 20 41 23 67 1 9 1 35 0 46 -4 32 -16 57 -36 74 -14 11 -26 17 -46 22 -6 1 -12 2 -28 2 -19 0 -22 0 -28 -2 -9 -3 -15 -7 -19 -14 -6 -11 -6 -11 -6 -113 0 -59 0 -95 1 -98 1 -7 6 -15 10 -18 4 -3 12 -6 20 -7 8 -1 29 -1 40 0z"/>
<path d="M425 207c-1 4 0 5 11 5 22 1 28 6 31 25 2 11 2 194 0 204 -1 10 -4 16 -9 19 -5 3 -15 6 -25 6 -7 0 -8 0 -8 2 -1 5 -8 5 107 5 104 0 107 0 109 -2 2 -2 2 -4 2 -14 1 -15 2 -44 3 -54 0 -6 0 -7 -1 -8 -3 -1 -4 0 -6 10 -3 11 -11 27 -17 34 -9 11 -18 18 -31 22 -5 2 -9 2 -34 2 -24 0 -30 0 -35 -2 -9 -2 -13 -6 -16 -13l-2 -6 0 -50 0 -50 17 0c27 0 49 2 66 5 19 3 18 4 18 -11 0 -8 0 -10 -2 -11 -1 -1 -4 -1 -15 0 -19 2 -38 4 -63 4l-21 0 0 -49 0 -49 3 -6c6 -11 15 -14 47 -14 22 0 28 1 38 7 18 10 29 27 32 51 0 4 1 4 4 4l3 0 -1 -33c0 -30 -1 -33 -2 -34 -1 -1 -23 -1 -102 -1l-101 0 0 2z"/>
<path d="M691 206c0 1 0 2 0 3 0 2 2 2 10 2 11 1 15 2 20 4 5 2 9 7 11 14 2 5 2 13 2 110 0 96 0 105 -2 110 -3 11 -11 15 -29 16l-11 1 0 3 0 3 114 0 114 0 2 -2c2 -2 2 -4 3 -22 0 -11 1 -26 2 -34 2 -22 2 -22 -1 -22 -2 0 -3 0 -3 2 -6 26 -16 46 -31 56 -7 5 -11 7 -20 10 -6 2 -9 2 -37 3 -40 0 -50 -1 -57 -8 -4 -4 -5 -9 -7 -18 -2 -11 -2 -190 0 -200 2 -18 9 -24 32 -25l10 -1 0 -3 0 -3 -20 0c-28 1 -63 0 -83 0 -14 -1 -17 0 -17 1z"/>
<path d="M1320 461l0 3 12 1c24 1 32 5 36 19 2 6 2 16 2 144 0 85 0 142 -1 150 -2 24 -8 29 -39 31l-12 1 0 3 0 3 8 0c48 0 110 0 119 0l11 1 0 -4 0 -4 -7 0c-10 0 -23 -2 -28 -4 -6 -2 -11 -8 -14 -15 -2 -5 -2 -12 -2 -80l0 -74 110 0 110 0 0 76c0 84 0 82 -7 89 -6 6 -13 8 -33 9l-12 1 0 3c0 4 2 4 14 3 7 0 74 -1 118 0l8 0 0 -3 0 -3 -12 -1c-32 -2 -37 -6 -39 -33 -1 -14 -1 -265 0 -279 1 -14 3 -19 7 -23 5 -5 14 -8 30 -9l13 -1 0 -3 0 -3 -13 0c-16 0 -97 0 -114 0l-12 0 0 3c0 3 0 4 15 4 22 1 29 5 34 18 2 5 2 9 2 72l0 67 -110 0 -110 0 0 -63c0 -38 0 -66 1 -70 3 -18 12 -23 38 -25l12 -1 0 -3 0 -4 -26 1c-33 1 -53 1 -86 0l-26 -1 0 3z"/>
<path d="M908 538c0 1 -20 48 -43 105 -46 112 -51 124 -58 137 -12 20 -21 26 -43 28 -8 1 -8 1 -9 3 0 4 1 4 10 4 30 -2 54 -2 74 -2 12 1 24 1 28 1l6 0 0 -3 0 -3 -8 -1c-25 -2 -35 -9 -35 -26 -1 -11 3 -22 19 -62l15 -37 40 0 40 0 20 44c11 24 22 47 23 51 4 13 3 22 -4 25 -4 2 -14 4 -20 4 -4 0 -4 0 -5 2 0 1 0 3 1 4 1 1 5 1 24 0 20 -1 27 -1 57 0 19 1 34 1 35 1 0 0 1 -2 0 -3 0 -2 -1 -2 -8 -3 -21 -2 -30 -10 -48 -45 -6 -11 -31 -65 -57 -121 -26 -56 -48 -102 -49 -104 -2 -3 -4 -3 -5 0zm11 92c10 22 18 40 19 41 1 2 -1 2 -35 2 -34 0 -36 0 -35 -2 4 -10 32 -80 33 -80 0 0 9 18 19 39z"/>
<path d="M1179 542c-28 4 -52 19 -62 38 -4 8 -6 16 -7 26 -1 17 3 30 14 44 9 12 19 19 53 38 28 16 40 24 50 35 12 12 17 25 18 44 0 24 -11 39 -34 46 -7 2 -22 2 -31 0 -28 -6 -55 -35 -66 -69 -3 -10 -6 -13 -9 -10 -1 1 5 62 6 66 1 2 16 11 25 15 17 7 24 8 48 8 21 0 23 0 32 -3 36 -10 59 -33 63 -65 3 -20 -3 -37 -18 -53 -11 -11 -22 -19 -53 -35 -42 -22 -58 -37 -64 -56 -2 -9 -2 -24 1 -32 5 -14 15 -23 28 -26 7 -2 20 -2 28 0 23 6 45 28 55 56 2 7 3 8 5 8 2 0 3 0 3 -2 0 -1 0 -13 -2 -27 -1 -18 -2 -26 -3 -28 -3 -4 -25 -13 -41 -16 -10 -2 -31 -3 -40 -1z"/>
<path d="M419 549c0 1 0 2 0 3 0 2 2 2 11 2 6 0 13 1 15 2 10 3 14 9 16 21 2 10 1 208 -1 214 -2 6 -8 13 -14 14 -6 2 -16 3 -23 3 -4 0 -5 0 -6 2 0 1 0 3 1 4 1 2 2 2 11 1 8 0 67 -1 103 0l7 0 0 -3 0 -3 -10 -1c-14 -1 -20 -2 -24 -6 -8 -7 -9 -15 -9 -72l0 -44 81 0 80 0 0 50c0 53 -1 57 -5 63 -4 6 -15 9 -33 10 -4 0 -4 1 -5 3 0 4 2 4 12 3 6 0 64 -1 103 0l8 0 0 -3 0 -3 -11 -1c-20 -1 -28 -5 -31 -17 -2 -6 -2 -12 -2 -110 0 -116 0 -111 7 -118 5 -6 12 -8 26 -8l11 -1 0 -3 0 -3 -14 0c-8 0 -24 0 -36 0 -12 0 -33 0 -47 0l-25 -1 0 3c0 4 0 4 14 4 20 1 27 7 30 27 1 5 1 24 1 51l0 42 -80 0 -80 0 0 -43c0 -46 1 -57 4 -64 4 -8 13 -12 29 -13l10 -1 0 -3 0 -3 -26 1c-32 1 -40 1 -70 0 -22 -1 -25 -1 -25 1z"/>
</g>
</svg>